<?xml version="1.0" encoding="UTF-8"?>
<!-- Created with Inkscape (http://www.inkscape.org/) -->
<svg width="200" height="200" version="1.1" viewBox="0 0 52.9 52.9" xmlns="http://www.w3.org/2000/svg">
 <g display="none">
  <rect width="52.9" height="52.9" fill="#fff" stop-color="#000000" stroke-width="2"/>
 </g>
 <path id="rabbit" d="m45.3 0.433s-16 10.6-15.1 26.2c-9.01-17.4-25-18.6-25-18.6s5.08 17.8 19.2 22.5c-2.52 0.0222-4.69 0.0564-5.45 0.13-0.344 0.0332-0.634 0.273-0.63 0.619 0.0447 4.06 0.291 8.41 0.662 12.9 0.0283 0.345 0.278 0.6 0.623 0.626 6.08 0.468 12.2 0.529 18.5 0.091 0.345-0.0243 0.605-0.274 0.626-0.619l0.788-12.9c0.021-0.345-0.29-0.601-0.632-0.648-1.37-0.19-2.55-0.271-3.64-0.276-0.247-0.0011-0.508 2.65e-4 -0.777 0.0014 14.6-13.8 10.8-30 10.8-30zm-14.1 32.7c0.296-0.0037 0.536 0.235 0.539 0.531l0.0766 8.03c3e-3 0.296-0.232 0.535-0.528 0.539l-1.3 0.0144c-0.296 0.0036-0.54-0.236-0.543-0.532l-0.0766-8.03c-3e-3 -0.296 0.232-0.535 0.528-0.539zm-6.84 0.069c1.65-0.0164 3 1.97 3.02 4.44 0.0245 2.47-1.29 4.49-2.94 4.5-1.65 0.0164-3-1.97-3.02-4.44-0.0245-2.47 1.29-4.49 2.94-4.5zm-4.34 12.1c-0.334-6e-3 -0.593 0.0074-0.701 0.0478-0.256 0.0949 0.572 5.64 0.858 5.93 0.286 0.292 2.25 0.448 2.41 0.243 0.163-0.205 0.593-5.76 0.503-5.85-0.38-0.163-2.07-0.355-3.07-0.373zm5.61 0.332c-0.867 0.0071-1.73 0.0506-1.9 0.153-0.333 0.205-0.0399 5.49 0.0084 5.84 0.27 0.194 2.16 0.291 2.55-0.0281 0.359-0.322 1.58-5.8 1.24-5.89-0.166-0.045-1.03-0.0746-1.9-0.0675z" stop-color="#000000" style="-inkscape-stroke:none;font-variation-settings:normal"/>
</svg>
